<svg height="48" viewBox="0 0 17 48" width="17" xmlns="http://www.w3.org/2000/svg"><g fill="none" fill-rule="evenodd"><path d="m0 48h17v-48h-17z"/><path d="m8.7168 16.7837c-.097 0-.193-.012-.253-.024-.012-.048-.036-.193-.036-.337 0-.963.493-1.913 1.023-2.515.674-.782 1.793-1.372 2.731-1.408.024.109.036.241.036.373 0 .951-.409 1.902-.986 2.587-.614.759-1.673 1.324-2.515 1.324m6.858 2.045c-.108.085-2.009 1.156-2.009 3.538 0 2.755 2.419 3.73 2.491 3.754-.012.06-.385 1.336-1.276 2.636-.794 1.143-1.624 2.286-2.888 2.286-1.263 0-1.588-.735-3.044-.735-1.42 0-1.925.759-3.08.759-1.156 0-1.962-1.059-2.888-2.359-1.071-1.528-1.937-3.898-1.937-6.149 0-3.609 2.346-5.523 4.656-5.523 1.228 0 2.25.807 3.02.807.735 0 1.878-.854 3.273-.854.53 0 2.431.047 3.682 1.84" fill="#fff"/></g></svg>